<?xml version="1.0" standalone="no"?>
<!DOCTYPE svg PUBLIC "-//W3C//DTD SVG 20010904//EN"
 "http://www.w3.org/TR/2001/REC-SVG-20010904/DTD/svg10.dtd">
<svg version="1.0" xmlns="http://www.w3.org/2000/svg"
 width="500.000000pt" height="500.000000pt" viewBox="0 0 500.000000 500.000000"
 preserveAspectRatio="xMidYMid meet">

<g transform="translate(0.000000,500.000000) scale(0.100000,-0.100000)"
fill="#000000" stroke="none">
<path d="M2305 4674 c-104 -64 -311 -189 -460 -279 -148 -90 -331 -200 -405
-245 -74 -45 -148 -90 -165 -100 -16 -9 -79 -48 -140 -85 -188 -116 -371 -227
-488 -297 -61 -37 -120 -72 -129 -78 -17 -9 -18 -47 -18 -559 l0 -549 102 -62
c171 -104 278 -170 378 -233 52 -33 130 -81 173 -108 117 -74 238 -150 277
-174 19 -12 74 -47 122 -78 48 -31 90 -57 93 -57 3 0 42 -24 88 -53 99 -64
196 -125 382 -242 77 -48 194 -123 260 -165 66 -43 129 -82 141 -88 17 -9 34
-2 110 47 49 32 206 134 349 226 143 93 357 231 475 308 118 77 238 154 265
172 28 17 70 44 95 60 242 155 348 222 485 308 88 55 174 108 190 118 l30 18
0 550 0 550 -65 39 c-57 35 -234 142 -525 319 -49 31 -103 63 -120 73 -16 10
-91 55 -165 100 -135 83 -216 132 -640 390 -124 75 -281 171 -350 213 -70 43
-133 77 -140 77 -8 0 -100 -53 -205 -116z m1170 -682 c523 -263 949 -481 948
-485 -2 -4 -3 -224 -3 -489 l0 -483 -58 -27 c-31 -16 -113 -57 -182 -94 -69
-36 -235 -122 -370 -191 -135 -69 -285 -147 -335 -173 -49 -26 -166 -87 -260
-135 -93 -48 -201 -104 -240 -125 -82 -44 -295 -155 -378 -199 -33 -17 -66
-27 -75 -24 -16 6 -168 83 -737 373 -148 75 -478 242 -733 371 l-462 233 2
491 3 490 530 265 c854 427 1369 680 1385 679 8 0 443 -214 965 -477z"/>
<path d="M2470 4179 c-8 -5 -67 -30 -130 -55 -107 -43 -155 -63 -205 -85 -11
-5 -114 -48 -230 -95 -347 -142 -594 -244 -705 -290 -58 -24 -197 -81 -310
-128 l-205 -84 -3 -411 c-2 -385 -1 -412 15 -417 10 -4 32 -12 48 -19 17 -7
93 -39 170 -70 77 -32 192 -79 255 -105 63 -26 187 -78 275 -114 88 -37 179
-75 202 -86 24 -11 49 -20 56 -20 7 0 17 -4 22 -8 6 -5 48 -24 95 -42 47 -18
108 -44 135 -56 28 -12 86 -37 130 -54 44 -17 103 -42 130 -54 28 -12 109 -46
180 -75 l130 -53 285 121 c157 67 304 131 327 142 24 10 45 19 48 19 2 0 34
14 70 30 36 17 68 30 70 30 3 0 24 9 48 20 52 24 346 147 482 202 55 22 118
48 141 58 22 11 65 29 95 40 29 12 76 32 104 44 27 12 66 29 85 36 64 25 60
-3 58 437 l-3 405 -220 89 c-121 49 -233 96 -250 103 -16 8 -79 34 -140 59
-274 112 -663 271 -795 327 -80 33 -197 82 -260 107 -63 25 -119 50 -124 54
-13 12 -57 10 -76 -2z m-423 -432 c29 -75 61 -158 145 -382 16 -44 34 -89 38
-100 4 -11 22 -56 38 -100 44 -116 119 -315 162 -430 21 -55 46 -121 55 -147
10 -27 21 -48 25 -48 5 0 17 26 28 58 19 54 136 366 166 442 8 19 29 73 46
120 18 47 36 94 40 105 4 11 22 58 40 105 18 47 36 94 40 105 5 11 32 83 61
160 29 77 57 152 63 166 l11 27 70 -28 70 -28 0 -748 0 -749 -65 -27 c-111
-45 -99 -92 -102 425 l-3 452 -32 -95 c-17 -52 -41 -122 -53 -155 -25 -69
-110 -310 -165 -465 -20 -58 -40 -114 -45 -125 -9 -23 -45 -122 -53 -146 -3
-9 -31 -26 -62 -39 l-56 -23 -56 24 c-52 23 -58 28 -74 74 -10 28 -32 88 -49
135 -17 47 -67 184 -110 305 -43 121 -95 265 -115 320 -20 55 -44 123 -53 150
-16 48 -17 36 -20 -407 -1 -300 -6 -458 -12 -458 -6 0 -42 12 -80 27 l-70 27
0 751 0 750 68 27 c37 15 69 27 72 27 3 1 19 -36 37 -82z"/>
<path d="M2655 975 c-5 -2 -23 -6 -38 -9 -35 -8 -57 -55 -57 -121 0 -41 -2
-45 -25 -45 -20 0 -25 -5 -25 -25 0 -20 5 -25 25 -25 l25 0 0 -170 0 -170 25
0 25 0 0 170 0 170 45 0 c41 0 45 2 45 25 0 23 -4 25 -45 25 l-45 0 0 53 c0
63 11 77 61 77 25 0 39 5 43 16 4 9 5 18 4 19 -7 5 -54 13 -63 10z"/>
<path d="M1916 962 c-2 -4 -4 -58 -3 -120 1 -61 1 -112 1 -112 -1 0 -16 13
-32 29 -121 112 -312 15 -312 -158 0 -114 86 -201 200 -201 37 0 130 50 130
70 0 5 4 10 9 10 5 0 8 -16 6 -35 -3 -31 -1 -35 21 -35 l24 0 0 280 c0 270 -1
280 -19 280 -11 0 -22 -3 -25 -8z m-76 -221 c50 -26 72 -70 71 -138 -1 -144
-153 -209 -252 -107 -28 29 -33 42 -36 91 -5 70 16 117 66 150 42 28 103 30
151 4z"/>
<path d="M510 670 l0 -260 25 0 25 0 2 218 3 217 18 -50 c10 -27 27 -72 37
-100 10 -27 38 -103 61 -168 40 -111 44 -118 68 -115 28 3 34 17 133 288 l53
145 3 -218 2 -217 25 0 25 0 0 260 0 260 -40 0 c-23 0 -40 -5 -40 -11 0 -6
-16 -55 -36 -108 -20 -53 -54 -145 -75 -205 -21 -61 -43 -114 -48 -119 -5 -5
-17 18 -29 55 -11 35 -35 101 -52 148 -17 47 -43 120 -58 163 l-26 77 -38 0
-38 0 0 -260z"/>
<path d="M1215 791 c-117 -53 -157 -188 -89 -298 71 -115 225 -123 312 -18 53
64 65 141 33 210 -48 104 -160 150 -256 106z m152 -51 c38 -23 73 -86 73 -132
-1 -50 -34 -115 -72 -137 -54 -33 -84 -35 -136 -9 -56 27 -92 83 -92 142 0 48
40 120 78 140 39 22 111 20 149 -4z"/>
<path d="M2882 797 c-40 -13 -100 -70 -119 -114 -20 -49 -16 -122 10 -173 57
-113 202 -143 299 -62 91 77 89 246 -3 314 -62 46 -120 57 -187 35z m166 -80
c31 -32 36 -43 40 -95 5 -73 -16 -123 -65 -153 -101 -62 -223 11 -223 133 0
100 64 162 158 155 45 -3 59 -9 90 -40z"/>
<path d="M3363 799 c-17 -5 -41 -21 -52 -35 l-21 -27 0 32 c0 26 -4 31 -25 31
l-25 0 0 -195 0 -195 25 0 25 0 0 134 c0 122 2 136 23 167 15 23 35 37 60 43
29 8 37 14 37 33 0 25 -1 25 -47 12z"/>
<path d="M3616 800 c-16 -5 -39 -19 -52 -31 l-24 -22 0 26 c0 22 -5 27 -25 27
l-25 0 0 -195 0 -195 25 0 25 0 0 133 c0 114 3 136 20 165 34 56 113 70 155
27 24 -23 25 -28 25 -175 l0 -150 30 0 30 0 0 141 0 141 34 34 c24 24 43 34
66 34 82 0 100 -38 100 -215 l0 -135 26 0 25 0 -3 148 c-3 164 -11 192 -67
229 -57 39 -122 25 -173 -36 l-25 -29 -17 29 c-30 51 -84 68 -150 49z"/>
<path d="M4252 788 c-74 -36 -112 -101 -112 -193 1 -139 150 -236 270 -175 21
11 46 30 54 42 16 22 16 22 16 -15 0 -33 3 -37 25 -37 l25 0 0 195 0 195 -25
0 c-22 0 -25 -4 -25 -37 l0 -37 -32 31 c-59 55 -125 66 -196 31z m174 -59 c38
-36 54 -72 54 -126 0 -104 -85 -176 -177 -151 -71 19 -113 77 -113 155 0 57
26 104 72 134 46 28 128 22 164 -12z"/>
<path d="M2080 663 c0 -118 3 -143 21 -179 49 -102 208 -113 283 -20 l31 38 3
150 4 150 -24 -4 c-23 -3 -23 -6 -28 -143 -3 -77 -9 -147 -13 -156 -22 -44
-120 -64 -176 -35 -43 23 -51 54 -51 201 l0 135 -25 0 -25 0 0 -137z"/>
</g>
</svg>
